<svg width="40" height="32" viewBox="0 0 201 160" fill="none" xmlns="http://www.w3.org/2000/svg"><g clip-path="url(#clip0)"><path d="M15.96 10h5.174v78.775H15.96V10zm10.858 0h5.163v78.775h-5.163V10zm26.197 0h5.186v78.775h-5.186V10zm10.73 0h5.185v78.775h-5.185V10zm10.489 0h5.163v78.775h-5.163V10zm42.403 0h5.152v78.775h-5.152V10zm10.589 0h5.175v78.775h-5.175V10zm10.5 0h5.163v78.775h-5.163V10zm10.595 0h5.175v78.775h-5.175V10zm26.578 0h5.152v78.775h-5.152V10zm10.489 0h5.174v78.775h-5.174V10zm10.589 0h5.175v78.775h-5.175V10zM0 10h10.651v78.775H0V10zm37.307 0h10.651v78.775h-10.65V10zm47.522 0H95.49v78.775H84.829V10zm15.842 0h10.685v78.775h-10.685V10zm58.296 0h10.64v78.775h-10.64V10z" fill="#221E20"/><path d="M33.107 124.077a15.235 15.235 0 00-2.408-1.4c.174-.129.358-.263.515-.364 3.13-2.363 4.75-5.801 4.738-9.923.011-3.601-1.366-6.681-4.038-8.887-2.66-2.234-6.16-3.321-10.304-3.321H4.144L0 100.188v48.893h20.16c5.482 0 9.9-1.26 13.104-3.909 3.248-2.632 4.889-6.417 4.855-10.976.028-4.244-1.685-7.722-5.012-10.119zm-3.315 9.845c-.011 2.845-.778 4.704-2.167 5.863-1.411 1.193-3.853 1.893-7.347 1.893H8.344v-14.392h11.474c3.685 0 6.29.599 7.779 1.669 1.461 1.019 2.184 2.531 2.195 4.967zM8.344 120.157v-12.549h11.144c3.052-.023 5.163.549 6.334 1.439 1.181.885 1.792 2.195 1.803 4.334 0 2.52-.7 4.099-2.01 5.102-1.3 1.053-3.613 1.685-6.945 1.674H8.344zm66.063-2.917c-3.085-3.545-7.274-5.337-12.27-5.303-4.967-.034-9.133 1.758-12.219 5.303-3.096 3.528-4.648 8.159-4.648 13.748 0 5.544 1.551 10.18 4.648 13.703 3.086 3.545 7.252 5.337 12.22 5.303h.033c4.99 0 9.167-1.792 12.242-5.303 3.108-3.523 4.636-8.159 4.636-13.703-.005-5.589-1.534-10.22-4.642-13.748zm-5.051 23.284l-.8-.593c-1.653 2.133-3.663 3.113-6.418 3.141-2.756-.028-4.783-1.008-6.401-3.141-1.608-2.145-2.459-5.074-2.459-8.938 0-3.881.852-6.804 2.459-8.96 1.618-2.156 3.64-3.136 6.4-3.175 2.756.045 4.772 1.025 6.418 3.175 1.607 2.156 2.492 5.074 2.492 8.96 0 3.853-.885 6.793-2.492 8.927l.8.604zm22.462-40.342h-3.859v48.899h7.745v-48.899h-3.886zm46.267 30.839c0-5.6-1.445-10.22-4.363-13.77-2.901-3.522-6.871-5.348-11.581-5.337-5.174-.011-9.441 1.82-12.555 5.443-3.119 3.607-4.625 8.462-4.614 14.37-.011 5.544 1.422 10.057 4.396 13.361 2.94 3.288 7.078 4.912 12.073 4.912h.068c4.177.011 7.711-1.02 10.466-3.142 2.766-2.128 4.592-5.242 5.471-9.145l.151-.627h-7.778l-.151.812c-.308 1.697-1.008 2.414-2.47 3.517-1.456 1.092-3.141 1.652-5.141 1.652-3.315-.028-5.46-.975-6.848-2.856-1.02-1.378-1.748-3.433-2.044-6.177h24.808l.112-3.013zm-16.184-11.956c2.788.023 4.692.868 6.048 2.554 1.08 1.344 1.814 3.281 2.055 5.785h-16.778c.347-2.212 1.103-3.982 2.19-5.348 1.657-2.016 3.713-2.974 6.485-2.991zm39.832.549v-6.669h-5.415v-9.571h-7.722v9.571h-4.738v6.669h4.738v21.521c.011 2.817.493 4.95 1.814 6.389 1.322 1.417 3.399 1.977 6.015 1.977 1.03 0 2.458-.151 4.452-.453l.851-.124v-6.294h-3.041a3.256 3.256 0 01-1.859-.465c-.37-.319-.493-.537-.515-1.025v-21.52h5.42v-.006zm35.045-2.374c-3.108-3.545-7.274-5.337-12.281-5.303-4.956-.034-9.111 1.758-12.208 5.303-3.13 3.528-4.636 8.159-4.636 13.748 0 5.544 1.512 10.18 4.636 13.703 3.097 3.545 7.252 5.314 12.208 5.303h.067c4.979 0 9.156-1.758 12.22-5.303 3.108-3.523 4.614-8.159 4.603-13.703.005-5.589-1.507-10.22-4.609-13.748zm-5.068 23.284l-.801-.593c-1.641 2.133-3.64 3.113-6.417 3.141-2.744-.028-4.783-1.008-6.39-3.141-1.618-2.145-2.458-5.085-2.458-8.938 0-3.881.84-6.804 2.458-8.96 1.619-2.156 3.64-3.136 6.39-3.175 2.777.045 4.782 1.025 6.417 3.175 1.619 2.156 2.47 5.074 2.47 8.96 0 3.853-.851 6.793-2.47 8.927l.801.604z" fill="#010101"/></g><defs><clipPath id="clip0"><path fill="#fff" d="M0 0h201v160H0z"/></clipPath></defs></svg>